<svg xmlns="http://www.w3.org/2000/svg" viewBox="0 0 11.15 9.41"><defs><style>.cls-1{fill:#233c78;}</style></defs><title>Koordinaattori_kalenteri</title><g id="Layer_2" data-name="Layer 2"><g id="Layer_1-2" data-name="Layer 1"><path class="cls-1" d="M10,9.41H1.11A1.11,1.11,0,0,1,0,8.3V1.75A1.11,1.11,0,0,1,1.11.64H10a1.11,1.11,0,0,1,1.11,1.11V8.3A1.11,1.11,0,0,1,10,9.41ZM1.11,1.3a.45.45,0,0,0-.45.45V8.3a.45.45,0,0,0,.45.45H10a.45.45,0,0,0,.45-.45V1.75A.45.45,0,0,0,10,1.3Z"/><rect class="cls-1" x="0.33" y="2.85" width="10.49" height="0.66"/><rect class="cls-1" x="2.65" width="0.66" height="1.97"/><rect class="cls-1" x="2" y="4.9" width="1.97" height="0.66"/><rect class="cls-1" x="7.08" y="4.9" width="1.97" height="0.66"/><rect class="cls-1" x="4.54" y="4.9" width="1.97" height="0.66"/><rect class="cls-1" x="2" y="6.49" width="1.97" height="0.66"/><rect class="cls-1" x="7.08" y="6.49" width="1.97" height="0.66"/><rect class="cls-1" x="4.54" y="6.49" width="1.97" height="0.66"/><rect class="cls-1" x="7.84" width="0.66" height="1.97"/></g></g></svg>
