<svg xmlns="http://www.w3.org/2000/svg" xmlns:xlink="http://www.w3.org/1999/xlink" width="24" height="24" viewBox="0 0 24 24">
  <defs>
    <clipPath id="clip-path">
      <rect id="Rectangle_1071" data-name="Rectangle 1071" width="24" height="24" transform="translate(-0.032 -0.032)" fill="#163979"/>
    </clipPath>
  </defs>
  <g id="Group_1889" data-name="Group 1889" transform="translate(0.032 0.032)">
    <g id="Group_1888" data-name="Group 1888" clip-path="url(#clip-path)">
      <path id="Path_639" data-name="Path 639" d="M0,19.5a4.672,4.672,0,0,0,4.745,4.463H19.223a4.658,4.658,0,0,0,4.744-4.433V7.337a4.793,4.793,0,0,0-4.744-5.044H17.662V1.07a1.071,1.071,0,0,0-2.143,0V2.293H8.448V1.07a1.071,1.071,0,0,0-2.143,0V2.293H4.745A4.793,4.793,0,0,0,0,7.337ZM2.143,9.049V7.031a2.6,2.6,0,0,1,2.6-2.6H6.306V6.267a1.071,1.071,0,0,0,2.143,0V4.433h7.1V6.267a1.071,1.071,0,0,0,2.143,0V4.433h1.561a2.572,2.572,0,0,1,2.6,2.6V9.355H2.143Zm0,2.751v-.306H21.825v7.7a2.552,2.552,0,0,1-2.571,2.6H4.745a2.573,2.573,0,0,1-2.6-2.6Z" fill="#163979"/>
    </g>
  </g>
</svg>